<?xml version="1.0" encoding="UTF-8"?>
<svg version="1.1" xmlns="http://www.w3.org/2000/svg" width="181" height="134">
<path d="M0 0 C7.26785513 4.1008568 13.29233928 9.40562459 15.796875 17.578125 C16.38765411 23.49387063 16.33620178 29.38422502 16.29296875 35.32421875 C16.29312395 37.06242432 16.29461633 38.80063024 16.29737854 40.53883362 C16.29875893 44.17261146 16.28626649 47.80599289 16.26342773 51.43969727 C16.23506542 56.07749401 16.23777951 60.71463173 16.25051785 65.35247707 C16.25750238 68.93949424 16.24965385 72.52636145 16.23726082 76.11335945 C16.23277173 77.82243333 16.23238708 79.53152345 16.23632622 81.24059868 C16.25170525 93.78441852 15.53975132 103.28526158 7.1171875 113.27734375 C-1.80099905 122.12046139 -12.42542238 124.73966665 -24.62573242 124.70751953 C-25.86409348 124.71014801 -25.86409348 124.71014801 -27.12747192 124.71282959 C-29.85453406 124.71722418 -32.58153095 124.71431282 -35.30859375 124.7109375 C-37.23073845 124.71161256 -39.15288306 124.71258427 -41.07502747 124.71383667 C-45.11586312 124.71531153 -49.15667669 124.7131708 -53.19750977 124.70849609 C-57.28867043 124.70398651 -61.37978674 124.70387965 -65.47094727 124.70849609 C-78.7155371 124.72338967 -91.95900518 124.69734837 -105.203125 124.578125 C-105.95813545 124.57163437 -106.7131459 124.56514374 -107.49103546 124.55845642 C-111.95490865 124.5162 -116.4161316 124.43273416 -120.87890625 124.3203125 C-122.40852242 124.29990402 -122.40852242 124.29990402 -123.96903992 124.27908325 C-133.69193738 123.95327562 -142.42487258 121.33055422 -149.55078125 114.49609375 C-156.39172209 106.55542719 -157.5110997 96.67660976 -157.43017578 86.58203125 C-157.43046783 85.61525955 -157.43075989 84.64848785 -157.43106079 83.65242004 C-157.42967613 80.4817279 -157.41415574 77.3112757 -157.3984375 74.140625 C-157.3947043 71.93245573 -157.39185878 69.7242848 -157.38986206 67.51611328 C-157.38224981 61.72275161 -157.36262204 55.92949126 -157.3404541 50.13616943 C-157.31994372 44.21709565 -157.31084926 38.29800538 -157.30078125 32.37890625 C-157.27937385 20.77860148 -157.24526706 9.17837169 -157.203125 -2.421875 C-134.6311701 -3.14204789 -112.15907225 -3.55744248 -89.578125 -2.921875 C-86.11121617 -2.82939182 -82.6443037 -2.7398656 -79.17715454 -2.65686035 C-77.06793602 -2.60596689 -74.95883886 -2.54962194 -72.84994507 -2.48669434 C-71.91510284 -2.46337036 -70.98026062 -2.44004639 -70.01708984 -2.41601562 C-69.20428558 -2.39301392 -68.39148132 -2.37001221 -67.55404663 -2.34631348 C-65.00738874 -2.4281662 -62.69390604 -2.90256993 -60.203125 -3.421875 C-57.59782454 -3.49205617 -55.0216561 -3.51500683 -52.41796875 -3.484375 C-51.67986465 -3.48058838 -50.94176056 -3.47680176 -50.18128967 -3.47290039 C-47.8343406 -3.4607369 -45.48751752 -3.44210891 -43.140625 -3.421875 C-40.04557609 -3.39525092 -36.95058927 -3.37527419 -33.85546875 -3.359375 C-32.79440163 -3.34692749 -32.79440163 -3.34692749 -31.7118988 -3.33422852 C-6.97610654 -3.21122364 -6.97610654 -3.21122364 0 0 Z " fill="#E52012" transform="translate(162.203125,7.421875)"/>
<path d="M0 0 C1.14570465 0.02927078 2.2914093 0.05854156 3.47183228 0.08869934 C7.12040822 0.187431 10.7666773 0.3217382 14.4140625 0.45703125 C16.89185864 0.53034553 19.36972471 0.60133598 21.84765625 0.66992188 C27.91252706 0.84286422 33.97589411 1.04500313 40.0390625 1.26953125 C39.24975342 2.04748047 38.46044434 2.82542969 37.6472168 3.62695312 C35.37770945 5.92641465 33.61652544 8.08186651 31.8515625 10.76953125 C31.36300781 11.50171875 30.87445313 12.23390625 30.37109375 12.98828125 C27.30232508 18.24388507 26.74825132 22.70192677 26.76782227 28.72827148 C26.75998215 29.98775101 26.75998215 29.98775101 26.75198364 31.27267456 C26.74176478 33.09070918 26.73596693 34.90877287 26.73410225 36.72683525 C26.73043266 39.60644506 26.7136901 42.48571231 26.69334412 45.36524963 C26.63798594 53.55048247 26.60724379 61.73576529 26.58276367 69.92114258 C26.56687395 74.93259389 26.53664184 79.94380107 26.49799919 84.95512581 C26.48636363 86.86203479 26.48041897 88.76898745 26.48031807 90.67593193 C26.48012564 93.34467894 26.46183241 96.01275404 26.43969727 98.68139648 C26.44427444 99.46548386 26.44885162 100.24957123 26.4535675 101.05741882 C26.36403773 107.85999952 24.19724467 112.53902011 19.3515625 117.39453125 C18.72894531 118.03648438 18.10632813 118.6784375 17.46484375 119.33984375 C10.81703031 124.62812046 4.88816679 125.97504325 -3.5234375 125.95703125 C-4.43029297 125.99763672 -5.33714844 126.03824219 -6.27148438 126.08007812 C-11.39559381 126.10608883 -14.26655996 125.57242589 -17.99609375 121.921875 C-24.42207281 114.61129324 -25.10539806 107.39723515 -25.18554688 98.09228516 C-25.19693695 97.17620987 -25.20832703 96.26013458 -25.22006226 95.31629944 C-25.33033852 85.77410893 -25.3780618 76.23116936 -25.42089844 66.68847656 C-25.44320934 62.1623768 -25.48504089 57.63709692 -25.54394531 53.11132812 C-25.61501185 47.63953 -25.65172559 42.16850589 -25.66401672 36.69626999 C-25.67441526 34.6142267 -25.69683453 32.53220677 -25.73161316 30.45042801 C-25.77782552 27.53455516 -25.77981977 24.62172436 -25.77148438 21.70556641 C-25.79508026 20.8502684 -25.81867615 19.9949704 -25.84298706 19.11375427 C-25.77614854 14.27203657 -25.04451669 11.84081464 -21.57839966 8.36231995 C-20.3804895 7.32220908 -19.17509204 6.29063268 -17.9609375 5.26953125 C-17.07325684 4.30571533 -16.18557617 3.34189941 -15.27099609 2.34887695 C-10.26993666 -0.79273857 -5.77403213 -0.24881591 0 0 Z " fill="#0AA3F7" transform="translate(53.9609375,4.73046875)"/>
<path d="M0 0 C3.62301129 0.09240154 7.24602415 0.1819808 10.8692627 0.26501465 C13.07863109 0.31599825 15.28788441 0.37237123 17.49694824 0.43518066 C18.96895691 0.47016663 18.96895691 0.47016663 20.47070312 0.50585938 C21.32506958 0.52886108 22.17943604 0.55186279 23.05969238 0.57556152 C25.64207943 0.49560066 27.97677766 0.03552902 30.5 -0.5 C32.77617069 -0.58000751 35.05447696 -0.60768953 37.33203125 -0.59765625 C38.62431641 -0.59443359 39.91660156 -0.59121094 41.24804688 -0.58789062 C42.60286526 -0.57953665 43.95768297 -0.57107172 45.3125 -0.5625 C46.68684735 -0.55748 48.06119645 -0.55291797 49.43554688 -0.54882812 C52.79040924 -0.53705668 56.14518221 -0.52061283 59.5 -0.5 C59.5 -0.17 59.5 0.16 59.5 0.5 C58.7265625 0.56316406 57.953125 0.62632813 57.15625 0.69140625 C49.30329727 1.61471134 44.62558763 3.40149991 39.5 9.5 C34.86791485 15.82279623 33.35255201 20.62808643 33.37402344 28.48461914 C33.3721553 29.29804779 33.37028717 30.11147644 33.36836243 30.94955444 C33.36435784 32.71743007 33.36228353 34.48531087 33.36190033 36.25319099 C33.35848029 40.02079465 33.33710652 43.78822644 33.31666946 47.55576992 C33.27869903 54.56869637 33.24737793 61.58144143 33.24951172 68.59448242 C33.25030189 73.47410935 33.22680138 78.35310948 33.1876297 83.23257256 C33.17721105 85.08593358 33.175615 86.93936732 33.18328094 88.79274178 C33.22619965 100.32488771 33.16215566 109.58047363 24.75 118.375 C20.83946466 120.93188849 16.83232009 122.77669934 12.5 124.5 C15.14 124.83 17.78 125.16 20.5 125.5 C20.5 125.83 20.5 126.16 20.5 126.5 C-1.59197346 127.75599037 -1.59197346 127.75599037 -12.11962891 127.54589844 C-13.94469965 127.51070733 -15.76994303 127.48437363 -17.59521484 127.46191406 C-21.14753591 127.41261121 -24.69833736 127.33385038 -28.25 127.25 C-29.38703369 127.23598145 -30.52406738 127.22196289 -31.69555664 127.20751953 C-42.09120928 126.9030792 -51.17186401 124.77982266 -58.84765625 117.41796875 C-65.68859709 109.47730219 -66.8079747 99.59848476 -66.72705078 89.50390625 C-66.72734283 88.53713455 -66.72763489 87.57036285 -66.72793579 86.57429504 C-66.72655113 83.4036029 -66.71103074 80.2331507 -66.6953125 77.0625 C-66.6915793 74.85433073 -66.68873378 72.6461598 -66.68673706 70.43798828 C-66.67912481 64.64462661 -66.65949704 58.85136626 -66.6373291 53.05804443 C-66.61681872 47.13897065 -66.60772426 41.21988038 -66.59765625 35.30078125 C-66.57624885 23.70047648 -66.54214206 12.10024669 -66.5 0.5 C-44.29979043 -0.25607867 -22.21154401 -0.59442411 0 0 Z M-37.5 7.5 C-38.38558594 8.2144075 -39.27117188 8.928815 -40.18359375 9.66487122 C-43.43203135 13.64074503 -43.19254675 16.65463309 -43.11523438 21.64550781 C-43.12078339 22.55837051 -43.1263324 23.47123322 -43.13204956 24.41175842 C-43.1438483 27.42608339 -43.11956059 30.43890534 -43.09375 33.453125 C-43.09203831 35.55434094 -43.09210518 37.65555901 -43.09387207 39.7567749 C-43.09221847 44.16178816 -43.07351852 48.56629275 -43.04199219 52.97119141 C-43.00241253 58.60114403 -42.99793556 64.23042745 -43.00545502 69.86049271 C-43.00853467 74.20155908 -42.99636721 78.54247674 -42.97932434 82.88350677 C-42.97231994 84.95820939 -42.96916668 87.03292886 -42.97001648 89.10764313 C-42.96820598 92.01770557 -42.94671446 94.92698767 -42.91992188 97.83691406 C-42.92285248 98.68502151 -42.92578308 99.53312897 -42.92880249 100.40693665 C-42.82065884 108.07232547 -41.33893681 115.32680603 -35.875 121 C-35.26398437 121.6496875 -34.65296875 122.299375 -34.0234375 122.96875 C-30.38011162 126.6307596 -26.57102127 125.79951795 -21.5 125.875 C-20.57832031 125.91238281 -19.65664063 125.94976562 -18.70703125 125.98828125 C-10.47879548 126.09272994 -5.27150245 123.54023404 1.05859375 118.4375 C1.67863281 117.798125 2.29867187 117.15875 2.9375 116.5 C3.57558594 115.860625 4.21367188 115.22125 4.87109375 114.5625 C8.6522142 109.77489426 8.77886472 105.04031746 8.72363281 99.13647461 C8.72404068 98.30645935 8.72444855 97.47644409 8.72486877 96.62127686 C8.72506593 94.82287628 8.7210408 93.02447135 8.71326447 91.22608757 C8.70300895 88.3700257 8.70844398 85.51439833 8.71868896 82.65834045 C8.74660183 74.53915827 8.75927936 66.42021864 8.72998047 58.30102539 C8.7131628 53.32828923 8.72570746 48.35632839 8.75643158 43.3836689 C8.7624994 41.4984424 8.75776414 39.61314624 8.74155426 37.72797966 C8.64552064 26.06626907 8.79839901 15.43776939 17.44195557 6.48960876 C19.0639506 5.08236636 20.77385381 3.77734818 22.5 2.5 C22.5 2.17 22.5 1.84 22.5 1.5 C15.24225568 1.17848576 7.98400666 0.91394646 0.72265625 0.68823242 C-1.74526504 0.60487857 -4.21278793 0.50866805 -6.6796875 0.39916992 C-10.23409778 0.24366447 -13.78739449 0.13504595 -17.34375 0.03515625 C-18.43989624 -0.02284653 -19.53604248 -0.0808493 -20.66540527 -0.14060974 C-28.63008312 -0.29791282 -32.22532321 1.66527769 -37.5 7.5 Z " fill="#F3BD0D" transform="translate(71.5,4.5)"/>
<path d="M0 0 C12.92907811 1.2094944 22.94219757 4.65310725 31.4765625 14.75390625 C34.76289057 19.59913354 35.29482085 23.92610053 35.2746582 29.67675781 C35.27976913 30.43356339 35.28488007 31.19036896 35.29014587 31.97010803 C35.30401052 34.4645282 35.30308692 36.95867094 35.30078125 39.453125 C35.30467103 41.19561871 35.30900628 42.93811148 35.31376648 44.68060303 C35.32122281 48.33218457 35.3209425 51.98366944 35.31567383 55.63525391 C35.30989212 60.29662943 35.32678149 64.95760593 35.3500185 69.61891556 C35.36481152 73.21877324 35.36561978 76.81853619 35.36250877 80.41841888 C35.36301959 82.1358799 35.36821202 83.85334655 35.37832069 85.57077789 C35.44333164 98.16492113 34.78077788 107.66217219 26.3203125 117.69921875 C18.39190569 125.56088813 8.38857722 129.13940981 -2.63818359 129.11352539 C-3.71885101 129.11344986 -4.79951843 129.11337433 -5.91293335 129.11329651 C-7.06314972 129.10813522 -8.21336609 129.10297394 -9.3984375 129.09765625 C-10.58853424 129.0962413 -11.77863098 129.09482635 -13.00479126 129.09336853 C-16.79488672 129.0877842 -20.58492248 129.07523451 -24.375 129.0625 C-26.9492179 129.05748298 -29.52343672 129.05292042 -32.09765625 129.04882812 C-38.39845777 129.03781989 -44.69922462 129.02109731 -51 129 C-51 128.67 -51 128.34 -51 128 C-49.26882935 128.00169189 -49.26882935 128.00169189 -47.50268555 128.00341797 C-43.17277292 127.99971449 -38.84395354 127.95662804 -34.5144043 127.90234375 C-32.64956765 127.88430578 -30.78459872 127.87659284 -28.91967773 127.87988281 C-17.74247584 127.89185946 -9.45331798 127.61275802 0 121 C0.99 120.67 1.98 120.34 3 120 C4.08431094 118.25132517 4.08431094 118.25132517 5 116 C5.515625 115.01 6.03125 114.02 6.5625 113 C9.02708078 107.85652706 9.16253421 103.2721382 9.19287109 97.62646484 C9.20104858 96.78362946 9.20922607 95.94079407 9.21765137 95.07241821 C9.24244562 92.28526508 9.25900845 89.49816278 9.2734375 86.7109375 C9.28142302 85.27886396 9.28142302 85.27886396 9.28956985 83.81785965 C9.31627888 78.76188206 9.3356587 73.70592894 9.35009766 68.64990234 C9.3634203 64.4771525 9.39124541 60.30489358 9.43212891 56.13232422 C9.48159484 51.08315704 9.506236 46.03443406 9.51332474 40.98503494 C9.52001392 39.06740086 9.53517473 37.14977578 9.55921555 35.23228073 C9.7164484 21.92969604 8.65215801 13.5748598 0 3 C0 2.01 0 1.02 0 0 Z " fill="#17BBF9" transform="translate(143,3)"/>
<path d="M0 0 C0.67794113 0.01474869 1.35588226 0.02949738 2.05436707 0.04469299 C9.11074389 0.19712654 16.16724861 0.34188079 23.22387695 0.48217773 C25.85738117 0.53554533 28.49084648 0.59087052 31.12426758 0.64819336 C34.90958263 0.73025014 38.69498179 0.80526488 42.48046875 0.87890625 C43.65772018 0.90594131 44.83497162 0.93297638 46.04789734 0.96083069 C47.14866104 0.98092697 48.24942474 1.00102325 49.38354492 1.02172852 C50.34951096 1.04171402 51.31547699 1.06169952 52.31071472 1.08229065 C54.99073007 1.00028365 57.38445873 0.56268499 60 0 C62.27617069 -0.08000751 64.55447696 -0.10768953 66.83203125 -0.09765625 C68.12431641 -0.09443359 69.41660156 -0.09121094 70.74804688 -0.08789062 C72.10286526 -0.07953665 73.45768297 -0.07107172 74.8125 -0.0625 C76.18684735 -0.05748 77.56119645 -0.05291797 78.93554688 -0.04882812 C82.29040924 -0.03705668 85.64518221 -0.02061283 89 0 C89 0.33 89 0.66 89 1 C88.2265625 1.06316406 87.453125 1.12632813 86.65625 1.19140625 C78.80329727 2.11471134 74.12558763 3.90149991 69 10 C64.36791485 16.32279623 62.85255201 21.12808643 62.87402344 28.98461914 C62.8721553 29.79804779 62.87028717 30.61147644 62.86836243 31.44955444 C62.86435784 33.21743007 62.86228353 34.98531087 62.86190033 36.75319099 C62.85848029 40.52079465 62.83710652 44.28822644 62.81666946 48.05576992 C62.77869903 55.06869637 62.74737793 62.08144143 62.74951172 69.09448242 C62.75030189 73.97410935 62.72680138 78.85310948 62.6876297 83.73257256 C62.67721105 85.58593358 62.675615 87.43936732 62.68328094 89.29274178 C62.72681794 100.99102207 62.42230617 109.80307867 54.375 119 C49.77068978 121.72848013 45.2638513 122.37245901 40 123 C40 123.66 40 124.32 40 125 C36.7 125 33.4 125 30 125 C29.67 124.01 29.34 123.02 29 122 C29.49371094 121.57589844 29.98742187 121.15179688 30.49609375 120.71484375 C31.13675781 120.12832031 31.77742188 119.54179688 32.4375 118.9375 C33.07558594 118.36902344 33.71367188 117.80054687 34.37109375 117.21484375 C37.95540109 112.34121722 37.13804545 105.26594738 37.11010742 99.40942383 C37.11064975 97.68968199 37.11123672 95.96994017 37.11186218 94.25019836 C37.10971993 92.89609076 37.10971993 92.89609076 37.10753441 91.51462746 C37.10398572 86.691337 37.12984891 81.868159 37.15039062 77.04492188 C37.17467295 70.92690256 37.19045155 64.80922286 37.17504883 58.69116211 C37.16332764 53.72905016 37.18093989 48.76777359 37.21749306 43.80579185 C37.2260545 41.92616253 37.22411151 40.04645215 37.210989 38.16684914 C37.14216635 27.51179048 37.09020378 17.80576938 44 9 C47.465 6.03 47.465 6.03 51 3 C26.25 2.505 26.25 2.505 1 2 C0.67 1.34 0.34 0.68 0 0 Z " fill="#F8D516" transform="translate(42,4)"/>
<path d="M0 0 C-2.02104463 2.10090353 -4.12208672 3.86136672 -6.4375 5.625 C-11.4101099 9.83016694 -13.7636017 15.69326378 -15 22 C-15.10259803 24.69287508 -15.15402179 27.36091885 -15.15771484 30.05395508 C-15.16279556 30.86259506 -15.16787628 31.67123505 -15.17311096 32.50437927 C-15.18379837 34.25804887 -15.19242492 36.01173196 -15.19923019 37.76542091 C-15.21104298 40.54434395 -15.23050223 43.32311324 -15.25234985 46.10197449 C-15.31388413 54.0022569 -15.36798021 61.90252299 -15.40136719 69.80297852 C-15.42234927 74.63824157 -15.45768032 79.47322301 -15.50212479 84.30832481 C-15.51625605 86.1474138 -15.52500072 87.9865526 -15.52817917 89.82569313 C-15.53310545 92.40338092 -15.55630706 94.98032541 -15.58349609 97.55786133 C-15.58048996 98.31187225 -15.57748383 99.06588318 -15.5743866 99.84274292 C-15.67328109 106.17805102 -17.07465051 110.87717876 -21.4375 115.6875 C-22.283125 116.450625 -23.12875 117.21375 -24 118 C-24.5775 118.680625 -25.155 119.36125 -25.75 120.0625 C-30.21500685 123.90736701 -34.51388798 125.98044631 -40.4765625 126.02734375 C-43.67198472 125.78020325 -46.82740382 125.4511265 -50 125 C-48.18072236 121.36144472 -43.56414 120.35861659 -39.98046875 118.73046875 C-34.56538938 115.58645806 -31.86409328 110.88082369 -30 105 C-29.6101264 102.17797725 -29.61191163 99.40658118 -29.64697266 96.5612793 C-29.64481247 95.74726654 -29.64265228 94.93325378 -29.64042664 94.09457397 C-29.63735339 92.33767843 -29.64090475 90.58076114 -29.65044022 88.82388878 C-29.66425513 86.03533719 -29.65769546 83.24749123 -29.64559937 80.4589386 C-29.61474818 72.53450788 -29.61946595 64.61024434 -29.63964844 56.68579102 C-29.65061209 51.82755026 -29.63727831 46.96984052 -29.60975266 42.11167336 C-29.6043398 40.26945128 -29.60830466 38.42717517 -29.62215042 36.58499718 C-29.7078327 25.0501589 -29.20178966 16.81544696 -21.97265625 7.34375 C-14.92457394 0.54069305 -9.60150471 -0.3415555 0 0 Z " fill="#172131" transform="translate(133,5)"/>
<path d="M0 0 C-1.051875 0.9590625 -1.051875 0.9590625 -2.125 1.9375 C-8.57524724 8.38774724 -13.19261473 15.84046591 -13.27897644 25.07658386 C-13.27642349 25.86269547 -13.27387054 26.64880707 -13.27124023 27.45874023 C-13.27908035 28.71821976 -13.27908035 28.71821976 -13.28707886 30.00314331 C-13.29729772 31.82117793 -13.30309557 33.63924162 -13.30496025 35.457304 C-13.30862984 38.33691381 -13.3253724 41.21618106 -13.34571838 44.09571838 C-13.40107656 52.28095122 -13.43181871 60.46623404 -13.45629883 68.65161133 C-13.47218855 73.66306264 -13.50242066 78.67426982 -13.54106331 83.68559456 C-13.55269887 85.59250354 -13.55864353 87.4994562 -13.55874443 89.40640068 C-13.55893686 92.07514769 -13.57723009 94.74322279 -13.59936523 97.41186523 C-13.59478806 98.19595261 -13.59021088 98.98003998 -13.585495 99.78788757 C-13.67502477 106.59046827 -15.84181783 111.26948886 -20.6875 116.125 C-27.12905124 122.20545162 -31.51627288 124.21384818 -40.5 124.25 C-42.66733141 124.18625496 -44.83449764 124.10949169 -47 124 C-45.32425517 122.88283678 -43.63733595 121.78063579 -41.9140625 120.73828125 C-34.98871451 116.42471125 -30.55671013 111.84581657 -28 104 C-27.81891319 101.08103186 -27.73989575 98.25896238 -27.76049805 95.34179688 C-27.75848389 94.48103043 -27.75646973 93.62026398 -27.75439453 92.7334137 C-27.75085644 90.86952536 -27.75160696 89.005625 -27.75617027 87.14173889 C-27.76177144 84.19099105 -27.75259233 81.24063509 -27.7389679 78.28991699 C-27.70186753 69.90240696 -27.68331617 61.51503123 -27.69458008 53.12744141 C-27.70042994 47.99270303 -27.68217921 42.8585178 -27.64869118 37.72389221 C-27.64073628 35.76869757 -27.64201537 33.81344266 -27.65271568 31.85826111 C-27.66703748 29.12429582 -27.65077925 26.39207215 -27.62768555 23.65820312 C-27.64533714 22.44862694 -27.64533714 22.44862694 -27.66334534 21.21461487 C-27.59550183 17.11840477 -27.2279814 15.27477342 -24.57600403 12.07849121 C-23.7259227 11.39258911 -22.87584137 10.70668701 -22 10 C-21.3915625 9.36835938 -20.783125 8.73671875 -20.15625 8.0859375 C-13.55873276 1.27057771 -9.52604727 -0.49942384 0 0 Z " fill="#0B1625" transform="translate(94,6)"/>
<path d="M0 0 C0.91247904 3.10302136 1.11243574 5.84577233 1.08229065 9.074646 C1.07525116 10.09825729 1.06821167 11.12186859 1.06095886 12.17649841 C1.04801285 13.29355667 1.03506683 14.41061493 1.02172852 15.56152344 C1.01212097 16.74228958 1.00251343 17.92305573 0.99261475 19.13960266 C0.96529815 22.3727831 0.93339954 25.6058794 0.89946485 28.83899593 C0.86506557 32.219556 0.83652237 35.60016538 0.80735779 38.98077393 C0.75125875 45.38034899 0.6898937 51.77986229 0.62663645 58.17937016 C0.55486801 65.46586604 0.48897049 72.75241131 0.42356598 80.03896666 C0.28890967 95.02604192 0.14688101 110.01303919 0 125 C-3.17995515 123.48789383 -5.24963177 122.00150848 -7.625 119.375 C-8.51058594 118.42753906 -8.51058594 118.42753906 -9.4140625 117.4609375 C-13.28762508 111.45023695 -13.30705836 104.40937987 -13.33813477 97.48217773 C-13.34967087 96.56566437 -13.36120697 95.649151 -13.37309265 94.7048645 C-13.40717654 91.69775625 -13.42584968 88.69085188 -13.44140625 85.68359375 C-13.44830915 84.65157396 -13.45521206 83.61955418 -13.46232414 82.55626106 C-13.49805163 77.10171497 -13.52165259 71.64727098 -13.53540039 66.19262695 C-13.55199431 60.56779817 -13.61051795 54.94421626 -13.67854404 49.31980801 C-13.72333186 44.98315014 -13.73689457 40.64679249 -13.74201775 36.30992317 C-13.74990323 34.23627013 -13.7695239 32.16262644 -13.80124092 30.08920097 C-13.8427197 27.18795137 -13.83984789 24.28987268 -13.82641602 21.38842773 C-13.84844086 20.53784286 -13.8704657 19.687258 -13.89315796 18.81089783 C-13.81786119 14.01250925 -13.07872608 11.56159415 -9.66319275 8.09681702 C-8.46366692 7.03959335 -7.24268317 6.00614245 -6 5 C-5.41011071 4.49397971 -4.82022142 3.98795942 -4.2124567 3.46660519 C-2.82755824 2.28806328 -1.41662472 1.14021014 0 0 Z " fill="#141F31" transform="translate(42,5)"/>
<path d="M0 0 C0.61746094 0.77601563 1.23492187 1.55203125 1.87109375 2.3515625 C3.2373965 4.05129326 4.63258167 5.72842737 6.0625 7.375 C10.4880798 13.37094682 11.44438563 18.47824015 11.38818359 25.72998047 C11.39344055 26.57486023 11.39869751 27.41973999 11.40411377 28.29022217 C11.41725063 31.06606882 11.40859657 33.84133562 11.3984375 36.6171875 C11.40046043 38.55860503 11.40337369 40.50002182 11.40713501 42.44143677 C11.41155014 46.50481419 11.40515481 50.56799334 11.39111328 54.63134766 C11.37404482 59.82178527 11.38385298 65.01175663 11.40183067 70.20217705 C11.41270993 74.21037256 11.40920282 78.21845893 11.4014473 82.22665787 C11.39945554 84.13948752 11.4018683 86.0523273 11.40888596 87.96514511 C11.41656629 90.64743752 11.4048039 93.3289925 11.38818359 96.01123047 C11.39729263 97.18049576 11.39729263 97.18049576 11.40658569 98.37338257 C11.33097878 105.0113095 9.78491505 110.92994612 6.4375 116.6875 C2.74217658 120.19331965 -1.5465292 122.5662924 -6 125 C-6.64710938 125.38285156 -7.29421875 125.76570313 -7.9609375 126.16015625 C-10.60017331 127.24719782 -12.77870685 127.2653439 -15.625 127.25 C-16.58664063 127.25515625 -17.54828125 127.2603125 -18.5390625 127.265625 C-21 127 -21 127 -23 125 C-22.27554688 124.72027344 -21.55109375 124.44054687 -20.8046875 124.15234375 C-12.46470495 120.69403099 -7.6993852 117.10203303 -3.87573242 108.8659668 C-0.94871285 101.29318507 -1.41512159 93.32323127 -1.42578125 85.33203125 C-1.41329712 83.60778918 -1.39895234 81.88355969 -1.38285828 80.15934753 C-1.34497544 75.62921535 -1.32968485 71.09930038 -1.32006836 66.56903076 C-1.30033416 59.38148695 -1.24382291 52.19406186 -1.1934166 45.00667953 C-1.17592022 42.41511556 -1.16107111 39.82354469 -1.14627075 37.23196411 C-1.06609259 24.80241269 -0.71698555 12.41118002 0 0 Z " fill="#18243E" transform="translate(142,4)"/>
<path d="M0 0 C0.67794113 0.01474869 1.35588226 0.02949738 2.05436707 0.04469299 C9.11074389 0.19712654 16.16724861 0.34188079 23.22387695 0.48217773 C25.85738117 0.53554533 28.49084648 0.59087052 31.12426758 0.64819336 C34.90958263 0.73025014 38.69498179 0.80526488 42.48046875 0.87890625 C43.65772018 0.90594131 44.83497162 0.93297638 46.04789734 0.96083069 C47.14866104 0.98092697 48.24942474 1.00102325 49.38354492 1.02172852 C50.34951096 1.04171402 51.31547699 1.06169952 52.31071472 1.08229065 C54.99073007 1.00028365 57.38445873 0.56268499 60 0 C62.27617069 -0.08000751 64.55447696 -0.10768953 66.83203125 -0.09765625 C68.12431641 -0.09443359 69.41660156 -0.09121094 70.74804688 -0.08789062 C72.10286526 -0.07953665 73.45768297 -0.07107172 74.8125 -0.0625 C76.18684735 -0.05748 77.56119645 -0.05291797 78.93554688 -0.04882812 C82.29040924 -0.03705668 85.64518221 -0.02061283 89 0 C89 0.33 89 0.66 89 1 C83.48870843 1.69984655 78.16585654 2.02678993 72.61962891 1.91723633 C63.90226477 1.753205 56.89541487 1.96651199 50 8 C50.3403125 9.3921875 50.3403125 9.3921875 50.6875 10.8125 C51 14 51 14 49.8125 15.875 C48 17 48 17 44 17 C43.86656693 17.58406616 43.73313385 18.16813232 43.59565735 18.76989746 C43 21 43 21 41.46948242 24.68164062 C39.75796062 29.18640502 39.52696725 33.31144115 39.48828125 38.09375 C39.47033005 38.92588013 39.45237885 39.75801025 39.43388367 40.61535645 C39.38019373 43.24352114 39.34601929 45.87150865 39.3125 48.5 C39.27929031 50.29429528 39.24479733 52.08856729 39.20898438 53.8828125 C39.12449176 58.25507956 39.05748541 62.62729786 39 67 C38.67 67 38.34 67 38 67 C37.8465317 60.6689397 37.74223987 54.33836731 37.67041016 48.00585938 C37.64043382 45.85658851 37.59963779 43.70743791 37.54736328 41.55859375 C36.97524052 17.41725674 36.97524052 17.41725674 44 9 C47.465 6.03 47.465 6.03 51 3 C26.25 2.505 26.25 2.505 1 2 C0.67 1.34 0.34 0.68 0 0 Z " fill="#E8F09A" transform="translate(42,4)"/>
<path d="M0 0 C10.89 0 21.78 0 33 0 C31.35 1.32 29.7 2.64 28 4 C26.79189364 5.14531497 25.60240402 6.31077084 24.4375 7.5 C23.87933594 8.0671875 23.32117188 8.634375 22.74609375 9.21875 C21.88177734 10.10046875 21.88177734 10.10046875 21 11 C19.97286896 11.85782074 19.97286896 11.85782074 18.92498779 12.73297119 C16.44217202 15.65694552 16.48552223 17.25181065 16.45410156 21.05371094 C16.42452362 22.88515656 16.42452362 22.88515656 16.39434814 24.75360107 C16.39311951 26.06725647 16.39189087 27.38091187 16.390625 28.734375 C16.37564007 30.09631312 16.35891225 31.45823309 16.34051514 32.82012939 C16.2968633 36.39740848 16.27684777 39.97444246 16.26177979 43.55194092 C16.24220054 47.2053475 16.20023159 50.85848968 16.16015625 54.51171875 C16.08487793 61.67440805 16.03457256 68.83698629 16 76 C15.67 76 15.34 76 15 76 C14.98969254 75.29256149 14.97938507 74.58512299 14.96876526 73.85624695 C14.87080479 67.19068762 14.76829237 60.52521568 14.66066074 53.85980511 C14.60548647 50.43301772 14.55207534 47.00622172 14.50268555 43.5793457 C14.44583335 39.64004749 14.38132688 35.7008926 14.31640625 31.76171875 C14.29969376 30.53039719 14.28298126 29.29907562 14.26576233 28.03044128 C14.24581711 26.88948502 14.22587189 25.74852875 14.20532227 24.57299805 C14.18200584 23.06409248 14.18200584 23.06409248 14.15821838 21.52470398 C14.1003603 18.87395947 14.1003603 18.87395947 13 16 C12.96045766 13.66700175 12.95598268 11.33291811 13 9 C13.99 8.67 14.98 8.34 16 8 C15.67 6.02 15.34 4.04 15 2 C10.05 1.67 5.1 1.34 0 1 C0 0.67 0 0.34 0 0 Z " fill="#30BDFA" transform="translate(51,6)"/>
<path d="M0 0 C-0.70125 0.639375 -1.4025 1.27875 -2.125 1.9375 C-6.97848638 6.79098638 -10.61650885 12.58377739 -13 19 C-13.99 19 -14.98 19 -16 19 C-17.76462683 15.91190305 -18 14.76687864 -18 11 C-20.50358872 11.48207356 -20.50358872 11.48207356 -23 13 C-25.67572949 19.54067209 -25.44229005 26.46026381 -25.625 33.4375 C-25.66367188 34.64599609 -25.70234375 35.85449219 -25.7421875 37.09960938 C-25.83599458 40.06625817 -25.92169246 43.03290836 -26 46 C-26.33 46 -26.66 46 -27 46 C-27.12400035 41.67677539 -27.21452256 37.35450398 -27.2746582 33.0300293 C-27.29973644 31.56044475 -27.33380856 30.09098413 -27.37719727 28.62182617 C-27.43815499 26.50408319 -27.46627316 24.38799424 -27.48828125 22.26953125 C-27.51446533 20.99698486 -27.54064941 19.72443848 -27.56762695 18.41333008 C-26.85270776 14.11428269 -25.28567866 12.75249684 -22 10 C-21.08734375 9.05253906 -21.08734375 9.05253906 -20.15625 8.0859375 C-13.55873276 1.27057771 -9.52604727 -0.49942384 0 0 Z " fill="#09394D" transform="translate(94,6)"/>
<path d="M0 0 C0.21437452 21.67564549 -0.43019956 43.33394454 -1 65 C-1.33 65 -1.66 65 -2 65 C-1.99333817 64.25497726 -1.98667633 63.50995453 -1.97981262 62.74235535 C-1.91971967 55.72371914 -1.87403498 48.70517193 -1.84456348 41.68635082 C-1.8289025 38.07781697 -1.80765685 34.46949556 -1.77368164 30.86108398 C-1.74110283 27.37921878 -1.72315025 23.89755799 -1.71536827 20.41555214 C-1.70712144 18.43957903 -1.68369962 16.46368825 -1.66011047 14.48783875 C-1.65988388 13.28682022 -1.65965729 12.0858017 -1.65942383 10.84838867 C-1.65276199 9.78915695 -1.64610016 8.72992523 -1.63923645 7.63859558 C-2.04489049 4.67167455 -2.66362054 3.79248033 -5 2 C-7.15578963 3.57111789 -9.29900483 5.15564548 -11.4375 6.75 C-12.04916016 7.1934375 -12.66082031 7.636875 -13.29101562 8.09375 C-16.59284146 10.57467991 -18.23860355 11.96236672 -19 16 C-19.98914937 18.50584507 -20.9999617 20.99990854 -22.04052734 23.48486328 C-23.35458977 28.29907979 -23.35648495 32.89709515 -23.4140625 37.8671875 C-23.43342865 38.90191193 -23.4527948 39.93663635 -23.4727478 41.00271606 C-23.53231842 44.29339467 -23.57883905 47.58410868 -23.625 50.875 C-23.66320048 53.11199405 -23.70225341 55.34897372 -23.7421875 57.5859375 C-23.83800138 63.05716358 -23.92311431 68.52847695 -24 74 C-24.33 74 -24.66 74 -25 74 C-25.10207342 66.93835914 -25.17174631 59.87691108 -25.21972656 52.81469727 C-25.23974509 50.41618744 -25.26696833 48.01772582 -25.30175781 45.61938477 C-25.35070613 42.15629118 -25.37306731 38.6938472 -25.390625 35.23046875 C-25.41127014 34.17168015 -25.43191528 33.11289154 -25.45318604 32.02201843 C-25.45618587 21.89201698 -23.03882533 13.11292314 -15.93359375 5.65625 C-12.14299025 2.40934923 -4.98676822 -2.49338411 0 0 Z " fill="#E24B3C" transform="translate(142,4)"/>
<path d="M0 0 C12.21 0 24.42 0 37 0 C36.34 0.33 35.68 0.66 35 1 C34.57074219 1.92039063 34.57074219 1.92039063 34.1328125 2.859375 C32.12117919 6.66066829 28.45616041 8.547241 25 11 C25 7.7 25 4.4 25 1 C17.08 1 9.16 1 1 1 C1 33.34 1 65.68 1 99 C0.67 99 0.34 99 0 99 C0 66.33 0 33.66 0 0 Z " fill="#F5F2E1" transform="translate(5,5)"/>
<path d="M0 0 C0.66 0.66 1.32 1.32 2 2 C1.4946875 2.47050781 0.989375 2.94101563 0.46875 3.42578125 C-0.1809375 4.04839844 -0.830625 4.67101562 -1.5 5.3125 C-2.1496875 5.92738281 -2.799375 6.54226562 -3.46875 7.17578125 C-5.3214614 8.98601529 -5.3214614 8.98601529 -5 12 C-3.906875 11.814375 -2.81375 11.62875 -1.6875 11.4375 C2 11 2 11 5 12 C5 11.34 5 10.68 5 10 C8.13498292 8.14223235 10.37471432 7.79859524 14 8 C11.61426621 9.89213369 9.92824652 11.02391783 7 12 C9.64 12.33 12.28 12.66 15 13 C15 13.33 15 13.66 15 14 C3.3262191 14.66368704 -8.30362838 15.24621424 -20 15 C-21.03205566 14.98211426 -22.06411133 14.96422852 -23.12744141 14.94580078 C-26.7105829 14.877039 -30.29252858 14.78487453 -33.875 14.6875 C-35.60568726 14.65390381 -35.60568726 14.65390381 -37.37133789 14.61962891 C-44.1719817 14.40192162 -49.66494418 13.5084669 -56 11 C-52.13145216 9.51209698 -49.80690651 10.69904609 -46 12 C-41.74339835 12.39614646 -37.49835363 12.41367781 -33.22436523 12.42553711 C-31.20237191 12.43741265 -29.18345846 12.48664335 -27.16210938 12.53710938 C-17.61007826 12.58930627 -11.87477583 11.08469871 -4.58984375 4.98046875 C-4.04457031 4.38878906 -3.49929687 3.79710938 -2.9375 3.1875 C-2.36902344 2.58292969 -1.80054688 1.97835937 -1.21484375 1.35546875 C-0.81394531 0.90816406 -0.41304687 0.46085937 0 0 Z " fill="#DFB98F" transform="translate(77,117)"/>
<path d="M0 0 C8.88866648 2.01728601 14.93883754 6.55796383 20.09667969 14.04248047 C23.45884242 20.97512037 22.55089828 29.21623549 22.49609375 36.74609375 C22.49624895 38.48429932 22.49774133 40.22250524 22.50050354 41.96070862 C22.50188393 45.59448646 22.48939149 49.22786789 22.46655273 52.86157227 C22.43819042 57.49936901 22.44090451 62.13650673 22.45364285 66.77435207 C22.46062738 70.36136924 22.45277885 73.94823645 22.44038582 77.53523445 C22.43589673 79.24430833 22.43551208 80.95339845 22.43945122 82.66247368 C22.46014341 99.53994137 22.46014341 99.53994137 19 107 C18.01 107.495 18.01 107.495 17 108 C17.2131636 107.41381393 17.42632721 106.82762787 17.64595032 106.22367859 C20.53815852 97.21279539 20.38364414 88.42176731 20.29296875 79.08203125 C20.28736211 77.37139765 20.28309707 75.66075919 20.28010559 73.95011902 C20.26874079 69.48341183 20.23934734 65.01700492 20.20599365 60.55041504 C20.17511071 55.97831278 20.1615616 51.40616123 20.14648438 46.83398438 C20.11446822 37.88919217 20.0633752 28.94462121 20 20 C19.34 19.67 18.68 19.34 18 19 C16.6641977 16.46065305 15.50049763 13.86316718 14.31640625 11.25 C13.14601947 8.68248328 13.14601947 8.68248328 10 8 C10 7.34 10 6.68 10 6 C9.34 6 8.68 6 8 6 C8 5.34 8 4.68 8 4 C6.68 4 5.36 4 4 4 C4 3.34 4 2.68 4 2 C2.68 2 1.36 2 0 2 C0 1.34 0 0.68 0 0 Z " fill="#8BDAEE" transform="translate(156,6)"/>
<path d="M0 0 C-2.88812924 2.8966488 -5.64292171 5.63029768 -9 8 C-9.94875 7.773125 -10.8975 7.54625 -11.875 7.3125 C-15.01175781 6.6440559 -15.01175781 6.6440559 -17.0859375 8.5546875 C-20.42726437 11.84776417 -22.9159694 14.80451734 -25 19 C-25.66 19.33 -26.32 19.66 -27 20 C-28 17 -28 17 -27.25 15.203125 C-23.50007975 9.3438746 -19.49608396 3.78688736 -13.1875 0.5625 C-8.77317877 -0.21649786 -4.46930766 -0.15898723 0 0 Z " fill="#255366" transform="translate(133,5)"/>
<path d="M0 0 C5.28 0 10.56 0 16 0 C14.35 1.32 12.7 2.64 11 4 C9.2057003 5.76818723 7.47654941 7.583696 5.74609375 9.4140625 C4 11 4 11 0 13 C0 8.71 0 4.42 0 0 Z " fill="#1C9FE3" transform="translate(68,6)"/>
<path d="M0 0 C0 0.99 0 1.98 0 3 C-0.56589844 3.18175781 -1.13179687 3.36351562 -1.71484375 3.55078125 C-2.44832031 3.80214844 -3.18179688 4.05351562 -3.9375 4.3125 C-4.66839844 4.55613281 -5.39929688 4.79976562 -6.15234375 5.05078125 C-8.35932024 5.91240441 -8.35932024 5.91240441 -9 9 C-11.24453728 10.03661604 -13.52254676 10.77784838 -15.87109375 11.546875 C-18.40242421 13.27468221 -19.00013086 14.72481609 -19.67504883 17.67724609 C-20.40607212 22.90260716 -20.48704906 28.16949865 -20.625 33.4375 C-20.66367188 34.64599609 -20.70234375 35.85449219 -20.7421875 37.09960938 C-20.83599458 40.06625817 -20.92169246 43.03290836 -21 46 C-21.33 46 -21.66 46 -22 46 C-22.12400035 41.67677539 -22.21452256 37.35450398 -22.2746582 33.0300293 C-22.29973644 31.56044475 -22.33380856 30.09098413 -22.37719727 28.62182617 C-22.43815499 26.50408319 -22.46627316 24.38799424 -22.48828125 22.26953125 C-22.51446533 20.99698486 -22.54064941 19.72443848 -22.56762695 18.41333008 C-21.85270776 14.11428269 -20.28567866 12.75249684 -17 10 C-16.08734375 9.05253906 -16.08734375 9.05253906 -15.15625 8.0859375 C-6.76725696 -0.5800506 -6.76725696 -0.5800506 0 0 Z " fill="#163863" transform="translate(89,6)"/>
<path d="M0 0 C2.97 0 5.94 0 9 0 C8.319375 0.515625 7.63875 1.03125 6.9375 1.5625 C4.72069138 3.4019795 2.54872571 5.23097618 0.4375 7.1875 C-0.39974609 7.95126953 -0.39974609 7.95126953 -1.25390625 8.73046875 C-6.29790158 15.28653427 -7.59796335 21.96492944 -7.609375 30.06640625 C-7.62591125 30.98590561 -7.64244751 31.90540497 -7.65948486 32.85276794 C-7.70761779 35.75608224 -7.72925809 38.65887417 -7.75 41.5625 C-7.77818876 43.54494767 -7.80812021 45.52737137 -7.83984375 47.50976562 C-7.91336709 52.33980067 -7.96315302 57.1695516 -8 62 C-8.33 62 -8.66 62 -9 62 C-9.09940302 55.89856638 -9.17172047 49.79761153 -9.21972656 43.69555664 C-9.23975397 41.62288189 -9.26698411 39.550263 -9.30175781 37.4777832 C-9.350668 34.48635004 -9.37305793 31.49566845 -9.390625 28.50390625 C-9.41127014 27.58791153 -9.43191528 26.67191681 -9.45318604 25.72816467 C-9.45538524 19.32082334 -8.0340507 14.63458112 -5 9 C-4.34 9 -3.68 9 -3 9 C-2.01 6.03 -1.02 3.06 0 0 Z " fill="#FCEC48" transform="translate(112,5)"/>
<path d="M0 0 C0.66 0.33 1.32 0.66 2 1 C1.38125 1.53625 0.7625 2.0725 0.125 2.625 C-2.3163723 5.35359257 -3.16995818 7.45345766 -4 11 C-3.67 11.99 -3.34 12.98 -3 14 C-3.33 14.33 -3.66 14.66 -4 15 C-4.12350658 16.90160112 -4.17793443 18.8077239 -4.20532227 20.71313477 C-4.22526749 21.9343251 -4.24521271 23.15551544 -4.26576233 24.41371155 C-4.28274791 25.75627513 -4.29962667 27.09884007 -4.31640625 28.44140625 C-4.33696947 29.80761861 -4.35796577 31.17382451 -4.37937927 32.5400238 C-4.43466535 36.14194524 -4.48404563 39.74392471 -4.53222656 43.34594727 C-4.58239403 47.01909572 -4.63810485 50.69215955 -4.69335938 54.36523438 C-4.80102082 61.57675132 -4.90244787 68.78833847 -5 76 C-5.33 76 -5.66 76 -6 76 C-6.13920196 66.97691415 -6.24572201 57.95419953 -6.31087303 48.93027306 C-6.34214738 44.73974986 -6.38454658 40.54996281 -6.45263672 36.35986328 C-6.51797195 32.31383692 -6.55373536 28.26851722 -6.56926346 24.22200394 C-6.58032475 22.6805878 -6.60192607 21.13920908 -6.63438034 19.59809494 C-6.87935324 7.48018025 -6.87935324 7.48018025 -4.62432861 3.68438721 C-2.96337891 2.00634766 -2.96337891 2.00634766 0 0 Z " fill="#1C1B30" transform="translate(36,10)"/>
<path d="M0 0 C1.32 1.65 2.64 3.3 4 5 C4.86625 5.8353125 4.86625 5.8353125 5.75 6.6875 C7 8 7 8 7 10 C5.35 10.33 3.7 10.66 2 11 C2 23.87 2 36.74 2 50 C1.01 50.495 1.01 50.495 0 51 C0 34.17 0 17.34 0 0 Z " fill="#293B5C" transform="translate(142,4)"/>
<path d="M0 0 C2.19632262 3.49875298 2.08384321 5.89494927 1.64477539 9.94604492 C1.01480282 16.59654096 0.78576327 23.1861846 0.68359375 29.86328125 C0.66281265 31.02127731 0.64203156 32.17927338 0.62062073 33.37236023 C0.55599198 37.01902167 0.4966496 40.66574601 0.4375 44.3125 C0.39423204 46.80664675 0.35061534 49.30078748 0.30664062 51.79492188 C0.2004015 57.86321756 0.09848545 63.93157378 0 70 C-0.33 70 -0.66 70 -1 70 C-1.02315734 61.31610145 -1.04093243 52.6322135 -1.05181217 43.94829082 C-1.05703356 39.91611835 -1.06411774 35.88396697 -1.07543945 31.85180664 C-1.08629472 27.96147771 -1.09228245 24.07116909 -1.09487724 20.18082619 C-1.09672672 18.6956532 -1.10033821 17.21048135 -1.10573006 15.725317 C-1.11297549 13.6471757 -1.11398946 11.56911867 -1.11352539 9.4909668 C-1.115746 8.30738083 -1.11796661 7.12379486 -1.12025452 5.90434265 C-1 3 -1 3 0 0 Z " fill="#23A9E9" transform="translate(43,6)"/>
<path d="M0 0 C0.66 0 1.32 0 2 0 C0.21870582 5.87827081 -3.29426844 10.27266097 -8.44140625 13.55859375 C-12.82336439 15.86385638 -15.97655676 17.29549666 -21 17 C-21 15.35 -21 13.7 -21 12 C-20.15888672 12.29003906 -20.15888672 12.29003906 -19.30078125 12.5859375 C-14.78926382 13.39785745 -10.81793631 11.28724295 -7 9 C-4.86243104 6.72565789 -3.11254234 4.41773138 -1.375 1.828125 C-0.92125 1.22484375 -0.4675 0.6215625 0 0 Z " fill="#107FDA" transform="translate(63,113)"/>
<path d="M0 0 C0.33 0 0.66 0 1 0 C0.68373476 8.38102882 -2.76811033 16.24441295 -8.8125 22.1875 C-13.00594328 24.57200696 -16.28910704 24.4710893 -21 24 C-19.18072236 20.36144472 -14.56414 19.35861659 -10.98046875 17.73046875 C-5.73568591 14.68533271 -3.64875398 10.81594929 -1.75 5.1875 C-1.24726562 3.72376953 -1.24726562 3.72376953 -0.734375 2.23046875 C-0.49203125 1.49441406 -0.2496875 0.75835937 0 0 Z " fill="#140B0B" transform="translate(104,106)"/>
<path d="M0 0 C1 2 1 2 0.1875 5.4375 C-1 9 -1 9 -3 12 C-3.3257721 14.07736917 -3.3257721 14.07736917 -3.31884766 16.37963867 C-3.33871735 17.26032516 -3.35858704 18.14101166 -3.37905884 19.04838562 C-3.39061005 19.99534805 -3.40216125 20.94231049 -3.4140625 21.91796875 C-3.43342865 22.89034988 -3.4527948 23.86273102 -3.4727478 24.86457825 C-3.5325555 27.97212944 -3.5789339 31.07971765 -3.625 34.1875 C-3.66317867 36.293636 -3.70223033 38.39975637 -3.7421875 40.50585938 C-3.83825811 45.67044605 -3.92228491 50.83510582 -4 56 C-4.33 56 -4.66 56 -5 56 C-5.127601 49.63221833 -5.21468406 43.2647707 -5.2746582 36.89599609 C-5.29968039 34.73311035 -5.33370909 32.57030811 -5.37719727 30.40771484 C-5.43839207 27.28462019 -5.46633343 24.16265087 -5.48828125 21.0390625 C-5.51408768 20.08448151 -5.5398941 19.12990051 -5.56648254 18.14639282 C-5.56940304 11.03026429 -3.63807305 6.08069453 0 0 Z " fill="#F9F167" transform="translate(85,15)"/>
<path d="M0 0 C0.66 0.99 1.32 1.98 2 3 C0.54540569 4.64913882 -0.91379257 6.29421782 -2.375 7.9375 C-3.18710938 8.85402344 -3.99921875 9.77054688 -4.8359375 10.71484375 C-7 13 -7 13 -9 14 C-7.35 14 -5.7 14 -4 14 C-4.33 14.66 -4.66 15.32 -5 16 C-6.79133978 16.05391993 -8.58313899 16.09275571 -10.375 16.125 C-11.37273437 16.14820313 -12.37046875 16.17140625 -13.3984375 16.1953125 C-16 16 -16 16 -18 14 C-17.27554688 13.72027344 -16.55109375 13.44054687 -15.8046875 13.15234375 C-8.64714239 10.18434838 -3.53427874 7.06855748 0 0 Z " fill="#110E1F" transform="translate(137,115)"/>
<path d="M0 0 C8.31203408 1.88641908 14.55009031 6.03843634 19.453125 13.08984375 C21.65092674 17.12172652 22.46610633 20.3389367 22 25 C21.67 25 21.34 25 21 25 C21 23.35 21 21.7 21 20 C20.01 19.67 19.02 19.34 18 19 C16.56849658 16.48614034 15.45291985 13.89376786 14.28125 11.25 C13.14859004 8.67846905 13.14859004 8.67846905 10 8 C10 7.34 10 6.68 10 6 C9.34 6 8.68 6 8 6 C8 5.34 8 4.68 8 4 C6.68 4 5.36 4 4 4 C4 3.34 4 2.68 4 2 C2.68 2 1.36 2 0 2 C0 1.34 0 0.68 0 0 Z " fill="#A3F4FA" transform="translate(156,6)"/>
<path d="M0 0 C3.3 0 6.6 0 10 0 C7.43383368 5.13233264 4.63990681 6.70716291 0 10 C0 6.7 0 3.4 0 0 Z " fill="#8496AB" transform="translate(30,6)"/>
<path d="M0 0 C0.33 0.99 0.66 1.98 1 3 C-1.64 5.64 -4.28 8.28 -7 11 C-6.01 11.66 -5.02 12.32 -4 13 C-8.29 13 -12.58 13 -17 13 C-14.30928396 10.98196297 -11.70356891 9.10320997 -8.875 7.3125 C-7.85019531 6.65701172 -7.85019531 6.65701172 -6.8046875 5.98828125 C-5 5 -5 5 -3 5 C-2.690625 4.360625 -2.38125 3.72125 -2.0625 3.0625 C-1 1 -1 1 0 0 Z " fill="#1078C6" transform="translate(149,118)"/>
<path d="M0 0 C1.32 0.66 2.64 1.32 4 2 C3.44570312 2.53109375 2.89140625 3.0621875 2.3203125 3.609375 C1.23363281 4.66898438 1.23363281 4.66898438 0.125 5.75 C-0.59429687 6.44609375 -1.31359375 7.1421875 -2.0546875 7.859375 C-3.8749724 9.86241943 -4.83782728 11.59189437 -6 14 C-6.99 14.495 -6.99 14.495 -8 15 C-9 12 -9 12 -8.14453125 10.09765625 C-5.70054364 6.3635872 -3.36409091 2.99030303 0 0 Z " fill="#2B465D" transform="translate(114,10)"/>
<path d="M0 0 C0 1.65 0 3.3 0 5 C-0.99 5.495 -0.99 5.495 -2 6 C-2.66 5.01 -3.32 4.02 -4 3 C-7.96 5.97 -11.92 8.94 -16 12 C-16.33 11.01 -16.66 10.02 -17 9 C-12.26767889 4.83105045 -6.70355561 0 0 0 Z " fill="#EC6937" transform="translate(141,3)"/>
<path d="M0 0 C0.66 0.33 1.32 0.66 2 1 C1.01 1.66 0.02 2.32 -1 3 C11.87 3.495 11.87 3.495 25 4 C25 4.33 25 4.66 25 5 C13.78 5 2.56 5 -9 5 C-6.06626269 3.04417512 -3.21783702 1.43775696 0 0 Z " fill="#CEA674" transform="translate(67,126)"/>
<path d="M0 0 C1.32 1.65 2.64 3.3 4 5 C4.86625 5.8353125 4.86625 5.8353125 5.75 6.6875 C7 8 7 8 7 10 C5.35 10.33 3.7 10.66 2 11 C1.67 13.31 1.34 15.62 1 18 C0.67 18 0.34 18 0 18 C0 12.06 0 6.12 0 0 Z " fill="#4C4960" transform="translate(142,4)"/>
<path d="M0 0 C0 0.99 0 1.98 0 3 C-0.56589844 3.18175781 -1.13179687 3.36351562 -1.71484375 3.55078125 C-2.44832031 3.80214844 -3.18179688 4.05351562 -3.9375 4.3125 C-4.66839844 4.55613281 -5.39929688 4.79976562 -6.15234375 5.05078125 C-8.35932024 5.91240441 -8.35932024 5.91240441 -9 9 C-9.99 8.67 -10.98 8.34 -12 8 C-12 5 -12 5 -10.64453125 3.61328125 C-4.57852107 -0.69371531 -4.57852107 -0.69371531 0 0 Z " fill="#0E4262" transform="translate(89,6)"/>
<path d="M0 0 C4.29 0.66 8.58 1.32 13 2 C13 2.33 13 2.66 13 3 C11.329375 3.12375 11.329375 3.12375 9.625 3.25 C5.94246056 3.57873787 5.94246056 3.57873787 4.5625 6.0625 C4.376875 6.701875 4.19125 7.34125 4 8 C0 3.375 0 3.375 0 0 Z " fill="#4BE2F8" transform="translate(143,3)"/>
<path d="M0 0 C0.66 0.33 1.32 0.66 2 1 C1.38125 1.53625 0.7625 2.0725 0.125 2.625 C-2.3163723 5.35359257 -3.16995818 7.45345766 -4 11 C-3.67 11.99 -3.34 12.98 -3 14 C-3.59793673 16.35188447 -4.25881795 18.68925595 -5 21 C-5.33 21 -5.66 21 -6 21 C-6.92017937 7.60627803 -6.92017937 7.60627803 -4.6640625 3.66796875 C-3 2.0625 -3 2.0625 0 0 Z " fill="#213151" transform="translate(36,10)"/>
<path d="M0 0 C0.556875 0.185625 1.11375 0.37125 1.6875 0.5625 C4.399133 1.07551165 6.34371039 0.6640724 9 0 C8.67 1.32 8.34 2.64 8 4 C5.36 4.33 2.72 4.66 0 5 C0 3.35 0 1.7 0 0 Z " fill="#1286E6" transform="translate(42,125)"/>
<path d="M0 0 C1 2 1 2 0.1875 5.4375 C-1 9 -1 9 -3 12 C-3.39013716 13.9896995 -3.73202649 15.99019869 -4 18 C-4.33 18 -4.66 18 -5 18 C-5.67090715 10.75420281 -3.58125682 6.24161903 0 0 Z " fill="#DFE77A" transform="translate(85,15)"/>
<path d="M0 0 C1.16306443 3.54950034 0.92365049 6.55823948 0.5625 10.25 C0.46066406 11.32765625 0.35882813 12.4053125 0.25390625 13.515625 C0.17011719 14.33546875 0.08632813 15.1553125 0 16 C-0.33 16 -0.66 16 -1 16 C-1.185625 14.14375 -1.185625 14.14375 -1.375 12.25 C-1.75746305 9.1237803 -2.30549523 6.71120763 -4 4 C-2.68 2.68 -1.36 1.36 0 0 Z " fill="#0C2541" transform="translate(42,5)"/>
<path d="M0 0 C3.3 0 6.6 0 10 0 C7.76718268 2.23281732 5.85658836 3.91143831 3.3125 5.6875 C2.37857422 6.34298828 2.37857422 6.34298828 1.42578125 7.01171875 C0.95527344 7.33785156 0.48476562 7.66398438 0 8 C0 6.68 0 5.36 0 4 C0.99 4 1.98 4 3 4 C3 3.34 3 2.68 3 2 C2.01 1.34 1.02 0.68 0 0 Z " fill="#29404B" transform="translate(123,5)"/>
<path d="M0 0 C2.97 0 5.94 0 9 0 C8.21625 0.61875 7.4325 1.2375 6.625 1.875 C4.03162353 3.89858661 4.03162353 3.89858661 2 6 C1.01 5.67 0.02 5.34 -1 5 C-0.67 3.35 -0.34 1.7 0 0 Z " fill="#FCFB36" transform="translate(112,5)"/>
<path d="M0 0 C-4.61012242 2.95047835 -7.36529617 4.5497272 -13 4 C-12.34 3.67 -11.68 3.34 -11 3 C-11 2.34 -11 1.68 -11 1 C-3.57142857 -1.42857143 -3.57142857 -1.42857143 0 0 Z " fill="#66A7DC" transform="translate(164,125)"/>
<path d="M0 0 C0.99 0.33 1.98 0.66 3 1 C1 4 1 4 -1.5 4.75 C-4.41611947 5.84933606 -4.41611947 5.84933606 -5.3125 9.625 C-5.539375 10.73875 -5.76625 11.8525 -6 13 C-6.33 13 -6.66 13 -7 13 C-7.4375 9.875 -7.4375 9.875 -7 6 C-5.01812172 3.496014 -2.82708927 1.50132364 0 0 Z " fill="#1C3753" transform="translate(75,13)"/>
<path d="M0 0 C0.99 0.33 1.98 0.66 3 1 C1.8553125 2.2684375 1.8553125 2.2684375 0.6875 3.5625 C-2.0491418 6.82003668 -3.49414789 10.03723128 -5 14 C-5.33 14 -5.66 14 -6 14 C-5.53199289 9.94393835 -5.12046792 6.53411321 -3 3 C-2.34 3 -1.68 3 -1 3 C-0.67 2.01 -0.34 1.02 0 0 Z " fill="#F6F35E" transform="translate(110,11)"/>
<path d="M0 0 C2.97 0 5.94 0 9 0 C4.5 4 4.5 4 0 4 C0 2.68 0 1.36 0 0 Z " fill="#2BB1EB" transform="translate(75,6)"/>
<path d="M0 0 C2.31 0 4.62 0 7 0 C6.25 1.9375 6.25 1.9375 5 4 C2.875 4.75 2.875 4.75 1 5 C0.67 3.35 0.34 1.7 0 0 Z " fill="#638FB1" transform="translate(33,6)"/>
<path d="M0 0 C0.66 0.66 1.32 1.32 2 2 C-0.31 4.31 -2.62 6.62 -5 9 C-5.99 8.67 -6.98 8.34 -8 8 C-5.36 5.36 -2.72 2.72 0 0 Z " fill="#D29F20" transform="translate(77,117)"/>
<path d="M0 0 C1.1875 1.6875 1.1875 1.6875 2 4 C0.67172689 6.85578718 -0.14643942 8.57321971 -3 10 C-4 7 -4 7 -3.22265625 5.17578125 C-2.1484375 3.45052083 -1.07421875 1.72526042 0 0 Z " fill="#344251" transform="translate(109,15)"/>
<path d="M0 0 C0.66 0.99 1.32 1.98 2 3 C-3 9.57142857 -3 9.57142857 -8 11 C-7.38511719 10.31164062 -7.38511719 10.31164062 -6.7578125 9.609375 C-6.21898437 8.99578125 -5.68015625 8.3821875 -5.125 7.75 C-4.59132812 7.14671875 -4.05765625 6.5434375 -3.5078125 5.921875 C-2.0202513 4.02581254 -0.99677564 2.18709995 0 0 Z " fill="#1E0718" transform="translate(137,115)"/>
<path d="M0 0 C0.66 0 1.32 0 2 0 C1.67 3.63 1.34 7.26 1 11 C-1.43769218 7.34346173 -1.23944439 5.30999899 -1 1 C-0.67 0.67 -0.34 0.34 0 0 Z " fill="#20DAFD" transform="translate(65,14)"/>
<path d="M0 0 C1.32 0.33 2.64 0.66 4 1 C3.67 1.66 3.34 2.32 3 3 C2.01 3 1.02 3 0 3 C0 4.32 0 5.64 0 7 C-1.32 6.34 -2.64 5.68 -4 5 C-2.68 3.35 -1.36 1.7 0 0 Z " fill="#0C476A" transform="translate(123,6)"/>
<path d="M0 0 C0.99 0.33 1.98 0.66 3 1 C2.01 2.485 2.01 2.485 1 4 C-2.625 4.1875 -2.625 4.1875 -6 4 C-4.03617993 2.49440461 -2.21736634 1.10868317 0 0 Z " fill="#930606" transform="translate(102,127)"/>
<path d="M0 0 C0.66 0.66 1.32 1.32 2 2 C-0.3125 4.0625 -0.3125 4.0625 -3 6 C-3.99 5.67 -4.98 5.34 -6 5 C-4.02 3.35 -2.04 1.7 0 0 Z " fill="#A30D0A" transform="translate(112,120)"/>
<path d="M0 0 C1.65 1.65 3.3 3.3 5 5 C2.69 5 0.38 5 -2 5 C-1.34 3.35 -0.68 1.7 0 0 Z " fill="#BC6413" transform="translate(35,125)"/>
<path d="M0 0 C0 1.65 0 3.3 0 5 C-0.99 5.495 -0.99 5.495 -2 6 C-2.66 5.01 -3.32 4.02 -4 3 C-6.05925139 2.27617533 -6.05925139 2.27617533 -8 2 C-1.125 0 -1.125 0 0 0 Z " fill="#F4856D" transform="translate(141,3)"/>
<path d="M0 0 C-2.93828597 2.50298434 -5.17902761 3.46930939 -9 4 C-9 3.34 -9 2.68 -9 2 C-5.86501708 0.14223235 -3.62528568 -0.20140476 0 0 Z " fill="#E79A11" transform="translate(91,125)"/>
<path d="M0 0 C4.875 4.625 4.875 4.625 6 8 C2.97984943 6.99328314 1.90683422 6.451644 0 4 C0 2.68 0 1.36 0 0 Z " fill="#305B82" transform="translate(143,6)"/>
<path d="M0 0 C2.31 0 4.62 0 7 0 C2.25 3.875 2.25 3.875 0 5 C0 3.35 0 1.7 0 0 Z " fill="#1996D7" transform="translate(68,6)"/>
</svg>
